<svg width="53" height="34" viewBox="0 0 53 34" fill="none" xmlns="http://www.w3.org/2000/svg">
<path d="M18.968 16.352V8.768H20.648V26H18.968V17.816H11.432V26H9.752V8.768H11.432V16.352H18.968ZM28.4386 26H22.2226V8.768H27.8866C29.6626 8.768 31.0226 9.152 31.9666 9.92C32.9106 10.672 33.3826 11.768 33.3826 13.208C33.3826 14.168 33.1346 14.976 32.6386 15.632C32.1426 16.272 31.4466 16.728 30.5506 17C31.6386 17.256 32.4866 17.768 33.0946 18.536C33.7026 19.288 34.0066 20.208 34.0066 21.296C34.0066 22.768 33.5106 23.92 32.5186 24.752C31.5426 25.584 30.1826 26 28.4386 26ZM23.8546 10.208V16.376H27.7666C29.0786 16.376 30.0706 16.12 30.7426 15.608C31.4306 15.08 31.7746 14.312 31.7746 13.304C31.7746 12.28 31.4306 11.512 30.7426 11C30.0706 10.472 29.0786 10.208 27.7666 10.208H23.8546ZM28.4146 17.84H23.8546V24.56H28.4146C29.6626 24.56 30.6306 24.264 31.3186 23.672C32.0226 23.064 32.3746 22.24 32.3746 21.2C32.3746 20.16 32.0226 19.344 31.3186 18.752C30.6306 18.144 29.6626 17.84 28.4146 17.84Z" fill="#F2E6D4"/>
<path d="M37.996 26H35.404V23.216H37.996V26Z" fill="#F2E6D4"/>
</svg>
